<svg id="svg" version="1.1" xmlns="http://www.w3.org/2000/svg" xmlns:xlink="http://www.w3.org/1999/xlink" width="400" height="400" viewBox="0, 0, 400,400"><g id="svgg"><path id="path0" d="M235.250 78.523 C 199.945 81.566,176.708 102.446,170.388 136.805 C 168.971 144.508,168.932 145.426,168.821 173.688 L 168.717 200.000 143.359 200.000 L 118.000 200.000 118.000 228.875 L 118.000 257.750 143.375 257.750 L 168.750 257.750 168.750 327.716 L 168.750 397.681 170.563 397.965 C 179.885 399.425,186.817 399.875,200.000 399.875 C 213.183 399.875,220.115 399.425,229.438 397.965 L 231.250 397.681 231.250 327.717 L 231.250 257.753 254.556 257.689 L 277.862 257.625 282.135 229.750 C 284.485 214.419,286.478 201.453,286.563 200.938 L 286.719 200.000 258.984 200.000 L 231.250 200.000 231.250 179.990 C 231.250 158.502,231.318 157.014,232.516 152.271 C 234.968 142.563,241.253 135.998,250.961 133.006 C 255.997 131.454,256.176 131.440,273.313 131.322 L 289.000 131.214 289.000 106.635 L 289.000 82.056 288.188 81.909 C 273.523 79.257,246.669 77.539,235.250 78.523 " stroke="none" fill="#fbfbfc" fill-rule="evenodd"></path><path id="path1" d="M189.250 0.147 C 188.769 0.199,186.631 0.360,184.500 0.505 C 157.220 2.357,126.330 11.595,102.988 24.881 C 69.078 44.182,44.182 69.078,24.881 102.988 C 2.222 142.797,-5.592 194.316,4.005 240.625 C 20.591 320.656,85.718 383.861,165.250 397.112 C 166.556 397.330,167.878 397.564,168.188 397.634 L 168.750 397.760 168.750 327.880 L 168.750 258.000 143.375 258.000 L 118.000 258.000 118.000 229.000 L 118.000 200.000 143.375 200.000 L 168.750 200.000 168.750 175.175 C 168.750 146.284,168.924 142.927,170.895 133.750 C 179.005 95.993,207.313 76.482,251.480 78.208 C 263.284 78.670,283.322 80.647,288.688 81.880 L 289.250 82.010 289.250 106.607 L 289.250 131.204 274.063 131.316 C 257.648 131.437,256.278 131.534,251.544 132.905 C 241.876 135.705,235.352 142.199,232.777 151.585 C 231.425 156.513,231.421 156.585,231.314 179.063 L 231.215 200.000 258.982 200.000 C 274.255 200.000,286.750 200.081,286.750 200.180 C 286.750 200.693,277.950 257.628,277.845 257.799 C 277.776 257.909,267.265 258.000,254.485 258.000 L 231.250 258.000 231.250 327.880 L 231.250 397.760 231.813 397.634 C 232.122 397.564,233.444 397.330,234.750 397.112 C 287.512 388.321,336.761 356.051,366.812 310.581 C 393.228 270.611,404.420 223.053,398.603 175.500 C 392.283 123.838,366.095 76.765,325.500 44.100 C 316.615 36.950,307.971 31.118,297.012 24.881 C 274.170 11.880,245.889 3.258,217.375 0.602 C 213.419 0.234,191.703 -0.118,189.250 0.147 " stroke="none" fill="#1b74f4" fill-rule="evenodd"></path><path id="path2" d="M240.438 78.176 C 240.747 78.236,241.253 78.236,241.563 78.176 C 241.872 78.117,241.619 78.068,241.000 78.068 C 240.381 78.068,240.128 78.117,240.438 78.176 M248.563 78.172 C 248.803 78.235,249.197 78.235,249.438 78.172 C 249.678 78.109,249.481 78.058,249.000 78.058 C 248.519 78.058,248.322 78.109,248.563 78.172 M289.120 106.625 C 289.120 120.238,289.150 125.770,289.187 118.918 C 289.224 112.067,289.224 100.930,289.187 94.168 C 289.150 87.407,289.120 93.012,289.120 106.625 M231.308 160.500 C 231.308 160.981,231.359 161.178,231.422 160.938 C 231.485 160.697,231.485 160.303,231.422 160.063 C 231.359 159.822,231.308 160.019,231.308 160.500 M130.707 257.937 C 137.764 257.974,149.239 257.974,156.207 257.937 C 163.174 257.901,157.400 257.870,143.375 257.870 C 129.350 257.870,123.649 257.901,130.707 257.937 M242.813 257.937 C 249.241 257.975,259.759 257.975,266.188 257.937 C 272.616 257.900,267.356 257.870,254.500 257.870 C 241.644 257.870,236.384 257.900,242.813 257.937 " stroke="none" fill="#60a5f4" fill-rule="evenodd"></path><path id="path3" d="M243.813 78.182 C 244.328 78.236,245.172 78.236,245.688 78.182 C 246.203 78.128,245.781 78.084,244.750 78.084 C 243.719 78.084,243.297 78.128,243.813 78.182 " stroke="none" fill="#98c4fc" fill-rule="evenodd"></path><path id="path4" d="M246.940 78.177 C 247.251 78.237,247.701 78.234,247.940 78.172 C 248.179 78.109,247.925 78.060,247.375 78.063 C 246.825 78.066,246.629 78.117,246.940 78.177 " stroke="none" fill="#8cbcf4" fill-rule="evenodd"></path></g></svg>